<?xml version="1.0" encoding="UTF-8"?>
<svg version="1.1" xmlns="http://www.w3.org/2000/svg" width="85" height="85">
<path d="M0 0 C28.05 0 56.1 0 85 0 C85 28.05 85 56.1 85 85 C56.95 85 28.9 85 0 85 C0 56.95 0 28.9 0 0 Z " fill="#EDF1F2" transform="translate(0,0)"/>
<path d="M0 0 C28.05 0 56.1 0 85 0 C85 28.05 85 56.1 85 85 C56.95 85 28.9 85 0 85 C0 56.95 0 28.9 0 0 Z M50 12 C50 14.64 50 17.28 50 20 C48.24357178 19.98428955 48.24357178 19.98428955 46.45166016 19.96826172 C42.11689295 19.93212503 37.78213911 19.90912267 33.44726562 19.89013672 C31.56931318 19.88006466 29.69137647 19.86640638 27.81347656 19.84912109 C25.1177991 19.82492547 22.42232854 19.81352917 19.7265625 19.8046875 C18.46243027 19.78920364 18.46243027 19.78920364 17.17276001 19.77340698 C15.11378753 19.77300856 13.05532065 19.87742412 11 20 C7.51972337 23.48027663 8.69607871 28.60294997 8.67773438 33.30664062 C8.67990967 34.0463208 8.68208496 34.78600098 8.68432617 35.5480957 C8.68747355 37.79363083 8.66407814 40.03783221 8.63867188 42.28320312 C8.63639751 43.71614418 8.63569602 45.14908876 8.63671875 46.58203125 C8.63373779 47.88374268 8.63075684 49.1854541 8.62768555 50.52661133 C9.01801219 54.16803892 9.87144441 56.06589288 12 59 C10.35 59 8.7 59 7 59 C7 63.62 7 68.24 7 73 C16.50074636 73.02255226 26.00147507 73.0409158 35.50224209 73.05181217 C39.91337004 73.05704069 44.3244788 73.06413777 48.7355957 73.07543945 C52.98901115 73.08626944 57.24240809 73.09227707 61.49583626 73.09487724 C63.12221633 73.09673129 64.74859534 73.10035152 66.37496758 73.10573006 C68.64510193 73.11294198 70.91515885 73.11399088 73.18530273 73.11352539 C74.47991928 73.115746 75.77453583 73.11796661 77.10838318 73.12025452 C79.89442383 73.33128112 79.89442383 73.33128112 81 72 C81.07258946 69.81360547 81.08373783 67.62499611 81.0625 65.4375 C81.05347656 64.23996094 81.04445313 63.04242188 81.03515625 61.80859375 C81.02355469 60.88175781 81.01195313 59.95492187 81 59 C79.02 58.505 79.02 58.505 77 58 C77.03927612 56.76697144 77.03927612 56.76697144 77.0793457 55.5090332 C77.1834144 51.77705062 77.24836128 48.0453734 77.3125 44.3125 C77.35439453 43.01892578 77.39628906 41.72535156 77.43945312 40.39257812 C77.45556641 39.14541016 77.47167969 37.89824219 77.48828125 36.61328125 C77.51446533 35.46641846 77.54064941 34.31955566 77.56762695 33.13793945 C76.82005659 29.00524188 75.29257488 27.52640609 72 25 C70.68 25 69.36 25 68 25 C68 20.71 68 16.42 68 12 C62.06 12 56.12 12 50 12 Z " fill="#F8F8F9" transform="translate(0,0)"/>
<path d="M0 0 C1.6874269 0.00015917 3.37485866 0.00585622 5.06225586 0.01586914 C6.39189613 0.01799156 6.39189613 0.01799156 7.74839783 0.02015686 C10.59133215 0.02577324 13.43418892 0.03832848 16.27709961 0.05102539 C18.19962452 0.05603828 20.12215065 0.06060155 22.04467773 0.06469727 C26.7680151 0.07574798 31.49129419 0.09302356 36.21459961 0.11352539 C36.21459961 1.10352539 36.21459961 2.09352539 36.21459961 3.11352539 C24.00459961 3.11352539 11.79459961 3.11352539 -0.78540039 3.11352539 C-0.78540039 12.35352539 -0.78540039 21.59352539 -0.78540039 31.11352539 C14.06459961 31.11352539 28.91459961 31.11352539 44.21459961 31.11352539 C44.21459961 24.51352539 44.21459961 17.91352539 44.21459961 11.11352539 C45.20459961 11.11352539 46.19459961 11.11352539 47.21459961 11.11352539 C47.27247744 14.73845873 47.30815381 18.36327396 47.33959961 21.98852539 C47.35635742 23.02106445 47.37311523 24.05360352 47.39038086 25.11743164 C47.40004883 26.59663086 47.40004883 26.59663086 47.40991211 28.10571289 C47.42562256 29.47252197 47.42562256 29.47252197 47.44165039 30.86694336 C47.21459961 33.11352539 47.21459961 33.11352539 45.21459961 35.11352539 C42.30524381 35.25870283 39.49465361 35.29983335 36.58959961 35.23852539 C35.78780273 35.22950195 34.98600586 35.22047852 34.15991211 35.21118164 C32.17801438 35.18758762 30.1962698 35.15171604 28.21459961 35.11352539 C28.21459961 36.10352539 28.21459961 37.09352539 28.21459961 38.11352539 C41.08459961 38.11352539 53.95459961 38.11352539 67.21459961 38.11352539 C67.21459961 42.40352539 67.21459961 46.69352539 67.21459961 51.11352539 C66.21459961 52.11352539 66.21459961 52.11352539 63.32298279 52.23377991 C62.02836624 52.2315593 60.73374969 52.22933868 59.39990234 52.22705078 C58.33166733 52.22726982 58.33166733 52.22726982 57.24185181 52.22749329 C54.87726849 52.2267941 52.51276299 52.21900145 50.14819336 52.21118164 C48.51294498 52.20931748 46.87769604 52.20789357 45.2424469 52.20689392 C40.93025176 52.20306857 36.61809009 52.19323814 32.3059082 52.18218994 C27.90894015 52.17197619 23.51196672 52.16739638 19.11499023 52.16235352 C10.48150959 52.15161588 1.84806261 52.13401895 -6.78540039 52.11352539 C-6.78540039 47.49352539 -6.78540039 42.87352539 -6.78540039 38.11352539 C-5.13540039 38.11352539 -3.48540039 38.11352539 -1.78540039 38.11352539 C-2.27363281 37.44224609 -2.76186523 36.7709668 -3.26489258 36.0793457 C-5.16195535 32.37903765 -5.14315474 29.80748749 -5.11352539 25.66040039 C-5.11165222 24.95957336 -5.10977905 24.25874634 -5.10784912 23.53668213 C-5.10115621 22.06420085 -5.08729687 20.59173651 -5.06665039 19.11938477 C-5.0353079 16.85684842 -5.02565771 14.59500799 -5.01977539 12.33227539 C-4.94182731 0.14820701 -4.94182731 0.14820701 0 0 Z " fill="#1D4668" transform="translate(13.785400390625,20.886474609375)"/>
<path d="M0 0 C3.3125 -0.25 3.3125 -0.25 7 0 C9.4375522 2.2898323 9.96471346 3.68664541 10.34057617 7.02441406 C10.3170105 8.75256348 10.3170105 8.75256348 10.29296875 10.515625 C10.2784668 12.39121094 10.2784668 12.39121094 10.26367188 14.3046875 C10.23853516 15.60664062 10.21339844 16.90859375 10.1875 18.25 C10.16719727 20.22613281 10.16719727 20.22613281 10.14648438 22.2421875 C10.11112551 25.49520321 10.06177033 28.747396 10 32 C10.99 32.33 11.98 32.66 13 33 C0.46 33 -12.08 33 -25 33 C-25 32.01 -25 31.02 -25 30 C-23.17662109 29.90912109 -23.17662109 29.90912109 -21.31640625 29.81640625 C-19.73175772 29.73201668 -18.14712298 29.6473679 -16.5625 29.5625 C-15.35883789 29.50352539 -15.35883789 29.50352539 -14.13085938 29.44335938 C-10.24760439 29.5945704 -10.24760439 29.5945704 -7 28 C-6.84285346 26.36743242 -6.74914586 24.72864662 -6.68359375 23.08984375 C-6.64169922 22.10048828 -6.59980469 21.11113281 -6.55664062 20.09179688 C-6.51732422 19.05087891 -6.47800781 18.00996094 -6.4375 16.9375 C-6.39431641 15.89271484 -6.35113281 14.84792969 -6.30664062 13.77148438 C-6.20018775 11.18113116 -6.0981724 8.59067814 -6 6 C-4.02 5.67 -2.04 5.34 0 5 C0 3.35 0 1.7 0 0 Z " fill="#8F97A2" transform="translate(67,26)"/>
<path d="M0 0 C1.6874269 0.00015917 3.37485866 0.00585622 5.06225586 0.01586914 C6.39189613 0.01799156 6.39189613 0.01799156 7.74839783 0.02015686 C10.59133215 0.02577324 13.43418892 0.03832848 16.27709961 0.05102539 C18.19962452 0.05603828 20.12215065 0.06060155 22.04467773 0.06469727 C26.7680151 0.07574798 31.49129419 0.09302356 36.21459961 0.11352539 C36.21459961 1.10352539 36.21459961 2.09352539 36.21459961 3.11352539 C24.00459961 3.11352539 11.79459961 3.11352539 -0.78540039 3.11352539 C-0.78540039 12.35352539 -0.78540039 21.59352539 -0.78540039 31.11352539 C14.06459961 31.11352539 28.91459961 31.11352539 44.21459961 31.11352539 C44.21459961 24.51352539 44.21459961 17.91352539 44.21459961 11.11352539 C45.20459961 11.11352539 46.19459961 11.11352539 47.21459961 11.11352539 C47.27247744 14.73845873 47.30815381 18.36327396 47.33959961 21.98852539 C47.35635742 23.02106445 47.37311523 24.05360352 47.39038086 25.11743164 C47.40004883 26.59663086 47.40004883 26.59663086 47.40991211 28.10571289 C47.42562256 29.47252197 47.42562256 29.47252197 47.44165039 30.86694336 C47.21459961 33.11352539 47.21459961 33.11352539 45.21459961 35.11352539 C42.1418457 35.34057617 42.1418457 35.34057617 38.23803711 35.30883789 C37.55278961 35.306008 36.86754211 35.3031781 36.16152954 35.30026245 C33.97070934 35.28905821 31.78029645 35.26395398 29.58959961 35.23852539 C28.10523051 35.22849587 26.62085501 35.21936997 25.13647461 35.21118164 C21.495717 35.18911833 17.85519805 35.15458715 14.21459961 35.11352539 C14.21459961 36.10352539 14.21459961 37.09352539 14.21459961 38.11352539 C11.60871071 38.24846785 9.0097785 38.34754838 6.40209961 38.42602539 C5.66411133 38.46791992 4.92612305 38.50981445 4.16577148 38.55297852 C2.00756836 38.60180664 2.00756836 38.60180664 -1.78540039 38.11352539 C-5.09065331 34.13791397 -5.14957041 30.70545992 -5.11352539 25.66040039 C-5.11165222 24.95957336 -5.10977905 24.25874634 -5.10784912 23.53668213 C-5.10115621 22.06420085 -5.08729687 20.59173651 -5.06665039 19.11938477 C-5.0353079 16.85684842 -5.02565771 14.59500799 -5.01977539 12.33227539 C-4.94182731 0.14820701 -4.94182731 0.14820701 0 0 Z " fill="#385C7C" transform="translate(13.785400390625,20.886474609375)"/>
<path d="M0 0 C20.46 0 40.92 0 62 0 C62 2.64 62 5.28 62 8 C41.54 8 21.08 8 0 8 C0 5.36 0 2.72 0 0 Z " fill="#2FAAE6" transform="translate(13,62)"/>
<path d="M0 0 C5.94 0 11.88 0 18 0 C18 4.29 18 8.58 18 13 C19.32 13.33 20.64 13.66 22 14 C20.35 14 18.7 14 17 14 C17 15.65 17 17.3 17 19 C14.03 19.33 11.06 19.66 8 20 C8 26.6 8 33.2 8 40 C-6.85 40 -21.7 40 -37 40 C-37 39.67 -37 39.34 -37 39 C-22.48 39 -7.96 39 7 39 C7 32.07 7 25.14 7 18 C7.495 16.515 7.495 16.515 8 15 C6.35 15 4.7 15 3 15 C3 11.7 3 8.4 3 5 C2.67 9.29 2.34 13.58 2 18 C2.99 18 3.98 18 5 18 C5 18.66 5 19.32 5 20 C3.35 20 1.7 20 0 20 C0 17.69 0 15.38 0 13 C-12.21 13 -24.42 13 -37 13 C-37 12.67 -37 12.34 -37 12 C-24.79 12 -12.58 12 0 12 C0 11.01 0 10.02 0 9 C-12.87 9 -25.74 9 -39 9 C-39 8.67 -39 8.34 -39 8 C-26.13 8 -13.26 8 0 8 C0 5.36 0 2.72 0 0 Z " fill="#C8D0D7" transform="translate(50,12)"/>
<path d="M0 0 C4.62 0 9.24 0 14 0 C14 0.99 14 1.98 14 3 C25.22 3 36.44 3 48 3 C48 3.33 48 3.66 48 4 C39.73794235 4.78826124 31.53138696 5.19004673 23.234375 5.31640625 C21.49525848 5.3475779 21.49525848 5.3475779 19.7210083 5.37937927 C16.06405827 5.44409217 12.40704445 5.50339089 8.75 5.5625 C6.25129583 5.60575989 3.7525978 5.64937639 1.25390625 5.69335938 C-4.83066426 5.79969173 -10.9152964 5.90159444 -17 6 C-17 8.64 -17 11.28 -17 14 C-18.98 14.99 -18.98 14.99 -21 16 C-21 11.71 -21 7.42 -21 3 C-14.07 3 -7.14 3 0 3 C0 2.01 0 1.02 0 0 Z " fill="#1B3B58" transform="translate(28,56)"/>
<path d="M0 0 C1.6874269 0.00015917 3.37485866 0.00585622 5.06225586 0.01586914 C6.39189613 0.01799156 6.39189613 0.01799156 7.74839783 0.02015686 C10.59133215 0.02577324 13.43418892 0.03832848 16.27709961 0.05102539 C18.19962452 0.05603828 20.12215065 0.06060155 22.04467773 0.06469727 C26.7680151 0.07574798 31.49129419 0.09302356 36.21459961 0.11352539 C36.21459961 1.10352539 36.21459961 2.09352539 36.21459961 3.11352539 C23.67459961 3.11352539 11.13459961 3.11352539 -1.78540039 3.11352539 C-1.74583722 12.23831088 -1.74583722 12.23831088 -1.6953125 21.36303711 C-1.69281494 22.49499512 -1.69031738 23.62695312 -1.68774414 24.79321289 C-1.68250732 25.95578613 -1.67727051 27.11835937 -1.671875 28.31616211 C-1.78540039 31.11352539 -1.78540039 31.11352539 -2.78540039 33.11352539 C-3.44540039 33.11352539 -4.10540039 33.11352539 -4.78540039 33.11352539 C-4.81005431 28.57454834 -4.82823828 24.03560996 -4.84033203 19.49658203 C-4.84537179 17.95132773 -4.85220359 16.40607823 -4.86083984 14.86083984 C-4.87292115 12.6442751 -4.87863212 10.42777321 -4.88305664 8.21118164 C-4.88821793 7.51638199 -4.89337921 6.82158234 -4.8986969 6.10572815 C-4.89889316 4.44123209 -4.84729168 2.7768704 -4.78540039 1.11352539 C-3.78540039 0.11352539 -3.78540039 0.11352539 0 0 Z " fill="#193C5F" transform="translate(13.785400390625,20.886474609375)"/>
<path d="M0 0 C9.24 0 18.48 0 28 0 C28 1.98 28 3.96 28 6 C18.43 6 8.86 6 -1 6 C-0.67 4.02 -0.34 2.04 0 0 Z " fill="#25A6E7" transform="translate(46,63)"/>
<path d="M0 0 C0.66 0 1.32 0 2 0 C2 2.64 2 5.28 2 8 C22.46 8 42.92 8 64 8 C64 8.33 64 8.66 64 9 C65.65 9.33 67.3 9.66 69 10 C69 10.33 69 10.66 69 11 C44.91 11 20.82 11 -4 11 C-3.01 10.01 -2.02 9.02 -1 8 C-0.42982192 5.95899762 -0.42982192 5.95899762 -0.3125 3.8125 C-0.209375 2.554375 -0.10625 1.29625 0 0 Z " fill="#31526D" transform="translate(11,62)"/>
<path d="M0 0 C1.20970459 0.00523682 2.41940918 0.01047363 3.66577148 0.01586914 C4.97094727 0.0190918 6.27612305 0.02231445 7.62084961 0.02563477 C9.00952213 0.03399138 10.39819401 0.04245634 11.78686523 0.05102539 C13.17944179 0.05603873 14.57202005 0.06060193 15.96459961 0.06469727 C19.38456394 0.07653105 22.80444367 0.09301659 26.22436523 0.11352539 C26.22436523 0.77352539 26.22436523 1.43352539 26.22436523 2.11352539 C27.54436523 2.44352539 28.86436523 2.77352539 30.22436523 3.11352539 C19.99436523 3.11352539 9.76436523 3.11352539 -0.77563477 3.11352539 C-0.77563477 4.10352539 -0.77563477 5.09352539 -0.77563477 6.11352539 C-6.05563477 6.11352539 -11.33563477 6.11352539 -16.77563477 6.11352539 C-17.10563477 4.79352539 -17.43563477 3.47352539 -17.77563477 2.11352539 C-16.77661133 2.05293945 -15.77758789 1.99235352 -14.74829102 1.92993164 C-13.45793945 1.84614258 -12.16758789 1.76235352 -10.83813477 1.67602539 C-9.55036133 1.59481445 -8.26258789 1.51360352 -6.93579102 1.42993164 C-3.57495136 1.09343224 -3.25630153 0.133185 0 0 Z " fill="#184C77" transform="translate(28.775634765625,52.886474609375)"/>
<path d="M0 0 C20.46 0 40.92 0 62 0 C62 2.64 62 5.28 62 8 C41.54 8 21.08 8 0 8 C0 5.36 0 2.72 0 0 Z M1 1 C1 2.98 1 4.96 1 7 C20.8 7 40.6 7 61 7 C61 5.02 61 3.04 61 1 C56.43755363 0.94186827 51.87520276 0.90635878 47.3125 0.875 C46.01892578 0.85824219 44.72535156 0.84148438 43.39257812 0.82421875 C42.14541016 0.81777344 40.89824219 0.81132813 39.61328125 0.8046875 C38.46641846 0.79421387 37.31955566 0.78374023 36.13793945 0.77294922 C33.00808345 0.99941511 30.81920095 1.66543968 28 3 C27.67 2.34 27.34 1.68 27 1 C18.42 1 9.84 1 1 1 Z " fill="#2E96CC" transform="translate(13,62)"/>
<path d="M0 0 C1.32 0 2.64 0 4 0 C4.50615298 1.26839526 5.00469099 2.53983102 5.5 3.8125 C5.91765625 4.87404297 5.91765625 4.87404297 6.34375 5.95703125 C7 8 7 8 7 11 C10.96 11 14.92 11 19 11 C19.33 8.36 19.66 5.72 20 3 C20.66 3 21.32 3 22 3 C21.34 5.97 20.68 8.94 20 12 C15.71 12 11.42 12 7 12 C7 12.66 7 13.32 7 14 C11.29 14 15.58 14 20 14 C19.67 15.65 19.34 17.3 19 19 C18.01 19 17.02 19 16 19 C16 18.01 16 17.02 16 16 C14.02 16 12.04 16 10 16 C10 16.99 10 17.98 10 19 C9.01 19 8.02 19 7 19 C4.94862685 15.51783717 4.43181408 12.22724343 3.875 8.25 C3.70742188 7.07953125 3.53984375 5.9090625 3.3671875 4.703125 C3.24601562 3.81109375 3.12484375 2.9190625 3 2 C2.01 2 1.02 2 0 2 C0 1.34 0 0.68 0 0 Z " fill="#548AAB" transform="translate(23,29)"/>
<path d="M0 0 C3.3 0 6.6 0 10 0 C10 2.97 10 5.94 10 9 C7.69 9 5.38 9 3 9 C3 10.32 3 11.64 3 13 C2.01 13 1.02 13 0 13 C0 8.71 0 4.42 0 0 Z " fill="#B2B8BD" transform="translate(61,39)"/>
<path d="M0 0 C3.96 0 7.92 0 12 0 C12 2.97 12 5.94 12 9 C8.04 9 4.08 9 0 9 C0 6.03 0 3.06 0 0 Z " fill="#D4D4D3" transform="translate(53,15)"/>
<path d="M0 0 C0.99 0.33 1.98 0.66 3 1 C3.02469575 5.09341499 3.04285793 9.18680121 3.05493164 13.28027344 C3.0599643 14.67318477 3.06679098 16.0660908 3.07543945 17.45898438 C3.08755152 19.45961246 3.09270412 21.46027888 3.09765625 23.4609375 C3.10289307 24.66540527 3.10812988 25.86987305 3.11352539 27.11083984 C3 30 3 30 2 32 C1.34 32 0.68 32 0 32 C0 21.44 0 10.88 0 0 Z " fill="#224162" transform="translate(9,22)"/>
<path d="M0 0 C0.99 0 1.98 0 3 0 C3.02887512 3.64581687 3.04675585 7.29160463 3.0625 10.9375 C3.07087891 11.97841797 3.07925781 13.01933594 3.08789062 14.09179688 C3.09111328 15.08115234 3.09433594 16.07050781 3.09765625 17.08984375 C3.10289307 18.00628662 3.10812988 18.92272949 3.11352539 19.86694336 C3 22 3 22 2 23 C0.33382885 23.04063832 -1.33388095 23.042721 -3 23 C-3 22.34 -3 21.68 -3 21 C-2.34 20.67 -1.68 20.34 -1 20 C-0.67 13.4 -0.34 6.8 0 0 Z " fill="#1D4B71" transform="translate(58,32)"/>
<path d="M0 0 C1.32 0 2.64 0 4 0 C5.85776765 3.13498292 6.20140476 5.37471432 6 9 C3.36 9 0.72 9 -2 9 C-1.125 1.125 -1.125 1.125 0 0 Z " fill="#4186B4" transform="translate(34,29)"/>
<path d="M0 0 C3.3 0 6.6 0 10 0 C10 1.32 10 2.64 10 4 C7.69 4 5.38 4 3 4 C3 5.32 3 6.64 3 8 C2.01 8 1.02 8 0 8 C0 5.36 0 2.72 0 0 Z " fill="#C7CBCF" transform="translate(61,39)"/>
<path d="M0 0 C1.98 0.66 3.96 1.32 6 2 C5.67 3.98 5.34 5.96 5 8 C6.6396875 7.938125 6.6396875 7.938125 8.3125 7.875 C12 8 12 8 15 10 C11.04 10 7.08 10 3 10 C2.01 6.7 1.02 3.4 0 0 Z " fill="#C7DEEB" transform="translate(27,30)"/>
<path d="M0 0 C4.95 0 9.9 0 15 0 C15 0.99 15 1.98 15 3 C10.05 3 5.1 3 0 3 C0 2.01 0 1.02 0 0 Z " fill="#7F8D9B" transform="translate(12,56)"/>
<path d="M0 0 C2.31 0 4.62 0 7 0 C7.33 1.65 7.66 3.3 8 5 C2.25 5.125 2.25 5.125 0 4 C0 2.68 0 1.36 0 0 Z " fill="#4C94C1" transform="translate(64,48)"/>
<path d="M0 0 C3.63 0 7.26 0 11 0 C11 1.32 11 2.64 11 4 C9.02 4 7.04 4 5 4 C5 3.34 5 2.68 5 2 C3.35 2 1.7 2 0 2 C0 1.34 0 0.68 0 0 Z " fill="#D8D8D9" transform="translate(53,25)"/>
<path d="M0 0 C3.63 0 7.26 0 11 0 C11 0.99 11 1.98 11 3 C7.37 3 3.74 3 0 3 C0 2.01 0 1.02 0 0 Z " fill="#DADADA" transform="translate(53,20)"/>
<path d="M0 0 C4.62 0 9.24 0 14 0 C13.67 1.32 13.34 2.64 13 4 C12.01 4 11.02 4 10 4 C10 3.01 10 2.02 10 1 C8.02 1 6.04 1 4 1 C4 1.99 4 2.98 4 4 C3.01 4 2.02 4 1 4 C0.67 2.68 0.34 1.36 0 0 Z " fill="#6CA1C3" transform="translate(29,44)"/>
<path d="M0 0 C1.22589844 0.01353516 1.22589844 0.01353516 2.4765625 0.02734375 C3.41628906 0.04474609 3.41628906 0.04474609 4.375 0.0625 C4.375 1.0525 4.375 2.0425 4.375 3.0625 C0.745 3.0625 -2.885 3.0625 -6.625 3.0625 C-6.625 2.4025 -6.625 1.7425 -6.625 1.0625 C-4.21954362 -0.14022819 -2.67503047 -0.03821472 0 0 Z " fill="#70B5D6" transform="translate(67.625,30.9375)"/>
<path d="M0 0 C4.29 0 8.58 0 13 0 C13 0.66 13 1.32 13 2 C6.565 2.495 6.565 2.495 0 3 C0 2.01 0 1.02 0 0 Z " fill="#093863" transform="translate(28,56)"/>
<path d="M0 0 C2.97 0.495 2.97 0.495 6 1 C6 1.66 6 2.32 6 3 C6.99 3.33 7.98 3.66 9 4 C3.375 5.125 3.375 5.125 0 4 C0 2.68 0 1.36 0 0 Z " fill="#F8F8F8" transform="translate(52,26)"/>
<path d="M0 0 C2.31 0 4.62 0 7 0 C5.75 2.5 5.75 2.5 4 5 C2.68 5 1.36 5 0 5 C0 3.35 0 1.7 0 0 Z " fill="#9FA4AC" transform="translate(67,26)"/>
<path d="M0 0 C1.32 0 2.64 0 4 0 C4.33 1.32 4.66 2.64 5 4 C2.03 3.505 2.03 3.505 -1 3 C-0.67 2.01 -0.34 1.02 0 0 Z " fill="#7FADC5" transform="translate(34,29)"/>
<path d="M0 0 C1.98 0 3.96 0 6 0 C6 0.99 6 1.98 6 3 C4.02 3 2.04 3 0 3 C0 2.01 0 1.02 0 0 Z " fill="#DCDDE0" transform="translate(65,44)"/>
</svg>
